<?xml version="1.0" encoding="UTF-8" standalone="no"?>
<!-- Created with Inkscape (http://www.inkscape.org/) -->

<svg
   width="52.645012mm"
   height="50.071609mm"
   viewBox="0 0 52.645012 50.071609"
   version="1.1"
   id="svg5"
   xml:space="preserve"
   xmlns:inkscape="http://www.inkscape.org/namespaces/inkscape"
   xmlns:sodipodi="http://sodipodi.sourceforge.net/DTD/sodipodi-0.dtd"
   xmlns="http://www.w3.org/2000/svg"
   xmlns:svg="http://www.w3.org/2000/svg"><sodipodi:namedview
     id="namedview7"
     pagecolor="#ffffff"
     bordercolor="#999999"
     borderopacity="1"
     inkscape:showpageshadow="0"
     inkscape:pageopacity="0"
     inkscape:pagecheckerboard="0"
     inkscape:deskcolor="#d1d1d1"
     inkscape:document-units="mm"
     showgrid="false" /><defs
     id="defs2" /><g
     id="layer1"
     transform="translate(-77.331903,-114.46499)"><g
       transform="matrix(0.26458333,0,0,0.26458333,11.098821,11.685853)"
       id="g23"
       style="fill:#ffffff;fill-opacity:1;stroke:#000000;stroke-opacity:1"><path
         transform="matrix(2.2115,0.03886,-0.03886,2.2115,-385.88,-623.3)"
         d="m 369.21,535.67 -27.378,-13.792 -26.883,14.735 4.6566,-30.3 -22.321,-21.014 30.256,-4.9346 13.088,-27.722 14.043,27.251 30.409,3.8806 -21.577,21.776 z"
         fill="#ffcc00"
         id="path9"
         style="fill:#ffffff;fill-opacity:1;stroke:#000000;stroke-opacity:1" /><path
         d="M 380.03,451.38 349.31,493.199 446.721,461.3 Z"
         fill="#ffe680"
         id="path11"
         style="fill:#ffffff;fill-opacity:1;stroke:#000000;stroke-opacity:1" /><path
         d="m 349.81,492.31 v 51.942 l -60.63,31.117 z"
         fill="#ffdd55"
         id="path13"
         style="fill:#ffffff;fill-opacity:1;stroke:#000000;stroke-opacity:1" /><path
         d="m 349.81,492.31 59.613,81.476 -11.189,-65.984 z"
         fill="#ffdd55"
         id="path15"
         style="fill:#ffffff;fill-opacity:1;stroke:#000000;stroke-opacity:1" /><path
         d="m 253.1,461.37 96.715,30.942 -29.882,-40.842 z"
         fill="#ffe680"
         id="path17"
         style="fill:#ffffff;fill-opacity:1;stroke:#000000;stroke-opacity:1" /><path
         d="M 349.81,492.31 V 391.09 l 29.83,60.357 z"
         fill="#ffdd55"
         id="path19"
         style="fill:#ffffff;fill-opacity:1;stroke:#000000;stroke-opacity:1" /><path
         d="m 289.8,574.53 11.261,-66.541 48.757,-15.679 z"
         fill="#ffd42a"
         id="path21"
         style="fill:#ffffff;fill-opacity:1;stroke:#000000;stroke-opacity:1" /></g></g></svg>
