<?xml version="1.0" encoding="UTF-8" standalone="no"?>
<!-- Created with Inkscape (http://www.inkscape.org/) -->

<svg
   width="52.644547mm"
   height="50.071182mm"
   viewBox="0 0 52.644547 50.071182"
   version="1.1"
   id="svg5"
   xml:space="preserve"
   xmlns:inkscape="http://www.inkscape.org/namespaces/inkscape"
   xmlns:sodipodi="http://sodipodi.sourceforge.net/DTD/sodipodi-0.dtd"
   xmlns="http://www.w3.org/2000/svg"
   xmlns:svg="http://www.w3.org/2000/svg"><sodipodi:namedview
     id="namedview7"
     pagecolor="#ffffff"
     bordercolor="#999999"
     borderopacity="1"
     inkscape:showpageshadow="0"
     inkscape:pageopacity="0"
     inkscape:pagecheckerboard="0"
     inkscape:deskcolor="#d1d1d1"
     inkscape:document-units="mm"
     showgrid="false" /><defs
     id="defs2" /><g
     inkscape:label="Layer 1"
     inkscape:groupmode="layer"
     id="layer1"
     transform="translate(-63.502161,-217.20988)"><g
       transform="matrix(0.26458333,0,0,0.26458333,-2.7311532,114.43049)"
       id="g23"
       style="stroke:#000000;stroke-opacity:1"><path
         transform="matrix(2.2115,0.03886,-0.03886,2.2115,-385.88,-623.3)"
         d="m 369.21,535.67 -27.378,-13.792 -26.883,14.735 4.6566,-30.3 -22.321,-21.014 30.256,-4.9346 13.088,-27.722 14.043,27.251 30.409,3.8806 -21.577,21.776 z"
         fill="#ffcc00"
         id="path9"
         style="stroke:#000000;stroke-width:0.99963;stroke-dasharray:none;stroke-opacity:1" /><path
         d="M 380.03,451.38 349.31,493.199 446.721,461.3 Z"
         fill="#ffe680"
         id="path11"
         style="fill:#ffffff;fill-opacity:1;stroke:#000000;stroke-opacity:1" /><path
         d="m 349.81,492.31 v 51.942 l -60.63,31.117 z"
         fill="#ffdd55"
         id="path13"
         style="stroke:#000000;stroke-opacity:1" /><path
         d="m 349.81,492.31 59.613,81.476 -11.189,-65.984 z"
         fill="#ffdd55"
         id="path15"
         style="fill:#ffffff;fill-opacity:1;stroke:#000000;stroke-opacity:1" /><path
         d="m 253.1,461.37 96.715,30.942 -29.882,-40.842 z"
         fill="#ffe680"
         id="path17"
         style="stroke:#000000;stroke-opacity:1" /><path
         d="M 349.81,492.31 V 391.09 l 29.83,60.357 z"
         fill="#ffdd55"
         id="path19"
         style="fill:#ffffff;fill-opacity:1;stroke:#000000;stroke-opacity:0.991228" /><path
         d="m 289.8,574.53 11.261,-66.541 48.757,-15.679 z"
         fill="#ffd42a"
         id="path21"
         style="stroke:#000000;stroke-opacity:1" /><path
         style="fill:#ffffff;fill-opacity:1;stroke:#000000;stroke-width:0.535055;stroke-dasharray:none;stroke-opacity:0.991228"
         d="m 365.41138,932.44164 c -12.11181,-3.89233 -22.16627,-7.12946 -22.34324,-7.19363 -0.17696,-0.0642 20.02033,-6.77785 44.88288,-14.9193 24.86255,-8.14144 45.21799,-14.7813 45.23431,-14.75523 0.10673,0.17049 -45.02587,43.85807 -45.34869,43.89675 -0.22208,0.0266 -10.31344,-3.13626 -22.42526,-7.02859 z"
         id="path1245"
         transform="translate(10.322469,-432.4932)" /><path
         style="fill:#ffffff;fill-opacity:1;stroke:#000000;stroke-width:0.535055;stroke-dasharray:none;stroke-opacity:0.991228"
         d="m 368.8598,990.67914 -28.73682,-15.13587 v -24.34046 c 0,-14.30383 0.0892,-24.24567 0.21623,-24.11057 0.47247,0.50232 57.18856,78.12736 57.30521,78.43136 0.0687,0.1791 0.0861,0.318 0.0386,0.3085 -0.0475,-0.01 -13.01796,-6.82823 -28.82321,-15.15296 z"
         id="path1247"
         transform="translate(10.322469,-432.4932)" /></g></g></svg>
